#!OML:ASF F:\VICON\USERDATA\INSTALL\rory3\rory3.ASF
:FULLY-SPECIFIED
:DEGREES
341
root 0.0534299 17.4886 0.865529 19.6115 -14.4912 4.12482
lowerback 18.2477 -0.705745 -0.82833
upperback 5.77051 -0.918788 3.57181
thorax -3.94104 -0.492109 4.47012
lowerneck -20.9253 -0.150911 -8.09759
upperneck 19.5804 1.24684 4.63531
head 9.56291 0.503928 3.13313
rclavicle 2.38542e-015 9.54166e-015
rhumerus 0.0303355 9.04688 -46.6186
rradius 60.1837
rwrist 7.71987
rhand -28.9937 2.28952
rfingers 7.12502
rthumb -2.34564 -27.6773
lclavicle 2.38542e-015 9.54166e-015
lhumerus 0.209305 -19.4694 70.3614
lradius 61.9777
lwrist 6.63508
lhand -16.9632 29.0632
lfingers 7.12502
lthumb 9.27085 58.8394
rfemur -29.901 1.65795 2.30918
rtibia 34.9931
rfoot -22.5204 -10.2388
rtoes -8.88947
lfemur -43.6971 4.69383 -23.882
ltibia 22.1233
lfoot 3.48956 -0.182136
ltoes -11.8582
342
root 0.0829859 17.4874 0.895347 20.3545 -14.045 4.19615
lowerback 18.5429 -0.733776 -0.933132
upperback 5.68348 -0.96455 3.58639
thorax -4.18283 -0.508494 4.56676
lowerneck -21.1958 -0.154881 -8.16685
upperneck 18.9366 1.34132 4.43968
head 9.38086 0.53602 3.07673
rclavicle 4.29375e-014 1.66979e-014
rhumerus -1.67602 10.8103 -48.6472
rradius 59.6828
rwrist 8.10048
rhand -28.6637 1.77329
rfingers 7.12502
rthumb -2.02692 -28.1968
lclavicle 4.29375e-014 1.66979e-014
lhumerus -1.26121 -21.5558 72.2575
lradius 61.2087
lwrist 6.2261
lhand -17.3629 29.0833
lfingers 7.12502
lthumb 8.88514 58.8762
rfemur -30.3229 1.69214 2.08987
rtibia 34.865
rfoot -22.7864 -10.737
rtoes -8.44285
lfemur -44.5114 4.59112 -24.2365
ltibia 22.1486
lfoot 3.36346 -0.728871
ltoes -11.9579
343
root 0.110406 17.4885 0.931102 21.1358 -13.7413 4.1451
lowerback 18.7519 -0.686318 -0.95577
upperback 5.63171 -0.902125 3.57648
thorax -4.35304 -0.473562 4.56321
lowerneck -21.3879 -0.201631 -8.20474
upperneck 18.1988 1.34832 4.28809
head 9.15887 0.537128 3.01652
rclavicle -2.62396e-014 4.77083e-015
rhumerus -3.48646 12.3617 -50.7372
rradius 59.2587
rwrist 8.32534
rhand -27.9858 1.59136
rfingers 7.12502
rthumb -1.37215 -28.384
lclavicle -2.62396e-014 4.77083e-015
lhumerus -2.77473 -23.6003 74.1849
lradius 60.6562
lwrist 6.01177
lhand -17.5395 29.2584
lfingers 7.12502
lthumb 8.71471 59.0585
rfemur -30.8172 1.69334 1.98829
rtibia 34.7404
rfoot -23.0211 -11
rtoes -7.61603
lfemur -45.3062 4.53444 -24.4476
ltibia 22.1776
lfoot 3.24321 -1.14007
ltoes -11.9705
344
root 0.135779 17.4869 0.971771 22.086 -13.3516 3.83171
lowerback 18.7959 -0.639205 -0.653775
upperback 5.58494 -0.780463 3.61576
thorax -4.44087 -0.411941 4.40763
lowerneck -21.5211 -0.283137 -8.25273
upperneck 17.3381 1.30923 4.1145
head 8.88884 0.516338 2.94188
rclavicle 2.78299e-014 -4.29375e-014
rhumerus -5.29941 13.7279 -52.833
rradius 58.8376
rwrist 8.43789
rhand -26.5936 1.01233
rfingers 7.12502
rthumb -0.027529 -28.9674
lclavicle 2.78299e-014 -4.29375e-014
lhumerus -4.30756 -25.3964 76.1901
lradius 60.1535
lwrist 5.27737
lhand -17.5351 29.4433
lfingers 7.12502
lthumb 8.71902 59.2432
rfemur -31.45 1.61985 2.20984
rtibia 34.6456
rfoot -23.1953 -11.3183
rtoes -7.05819
lfemur -46.187 4.3507 -24.2645
ltibia 22.1279
lfoot 3.2047 -1.32778
ltoes -11.6481
345
root 0.156358 17.4815 1.0065 22.9599 -12.7947 3.64551
lowerback 19.0061 -0.64287 -0.474548
upperback 5.50314 -0.740221 3.68641
thorax -4.64369 -0.38794 4.37991
lowerneck -21.7118 -0.330799 -8.34921
upperneck 16.4831 1.32995 3.96149
head 8.62792 0.523405 2.89223
rclavicle -1.03368e-014 -1.59028e-014
rhumerus -7.13479 14.9401 -54.9748
rradius 58.4536
rwrist 8.69596
rhand -25.1341 0.551292
rfingers 7.12502
rthumb 1.38203 -29.424
lclavicle -1.03368e-014 -1.59028e-014
lhumerus -5.787 -27.1115 78.1514
lradius 59.5117
lwrist 4.51425
lhand -17.7777 29.5692
lfingers 7.12502
lthumb 8.48484 59.3787
rfemur -31.9625 1.46596 2.36968
rtibia 34.5719
rfoot -23.2984 -11.6723
rtoes -6.9747
lfemur -47.0263 4.15783 -24.2418
ltibia 22.0342
lfoot 3.23366 -1.73078
ltoes -11.2095
346
root 0.174306 17.4817 1.03675 23.4275 -12.3539 3.96568
lowerback 19.5466 -0.600338 -0.789759
upperback 5.44998 -0.736408 3.61899
thorax -4.98076 -0.37767 4.50456
lowerneck -21.8459 -0.350403 -8.39932
upperneck 15.6174 1.37533 3.76581
head 8.35429 0.541106 2.82381
rclavicle -2.06736e-014 2.38542e-014
rhumerus -9.06181 15.9081 -57.2311
rradius 57.9419
rwrist 9.50847
rhand -24.6166 0.89113
rfingers 7.12502
rthumb 1.88187 -29.0803
lclavicle -2.06736e-014 2.38542e-014
lhumerus -7.2783 -28.6492 80.0641
lradius 58.8959
lwrist 3.46187
lhand -17.5344 29.7001
lfingers 7.12502
lthumb 8.71964 59.5
rfemur -32.1672 1.31976 1.96923
rtibia 34.5363
rfoot -23.3384 -11.992
rtoes -7.21977
lfemur -47.4803 4.01325 -24.8513
ltibia 21.9001
lfoot 3.32237 -2.34432
ltoes -10.5584
347
root 0.194383 17.4867 1.07695 23.8915 -12.0391 4.18323
lowerback 19.9496 -0.542485 -1.01181
upperback 5.39706 -0.701354 3.54396
thorax -5.24954 -0.353113 4.55596
lowerneck -21.8572 -0.366006 -8.55601
upperneck 14.813 1.43511 3.61696
head 8.08045 0.563246 2.79124
rclavicle 1.51076e-014 2.38542e-014
rhumerus -11.076 16.7748 -59.5617
rradius 57.3942
rwrist 10.8715
rhand -24.8102 1.35654
rfingers 7.12502
rthumb 1.69484 -28.6165
lclavicle 1.51076e-014 2.38542e-014
lhumerus -9.03316 -29.5373 82.0738
lradius 58.5354
lwrist 1.53737
lhand -16.3073 29.5542
lfingers 7.12502
lthumb 9.90371 59.3012
rfemur -32.378 1.222 1.63173
rtibia 34.5244
rfoot -23.4924 -12.1618
rtoes -6.92843
lfemur -47.839 3.96711 -25.3998
ltibia 21.7197
lfoot 3.43762 -2.94483
ltoes -10.4872
